# xmcd CD database file
#
# Track frame offsets:
#	150
#	19532
#	33797
#
# Disc length: 703 seconds
#
# Revision: 0
# Processed by: cddbd v1.5PL3 Copyright (c) Steve Scherf et al.
# Submitted via: CDex 1.50beta9
#
DISCID=1302bd03
DTITLE=ヒックスヴィル - 恋する青春
DYEAR=1997
DGENRE=Rock
TTITLE0=恋する青春
TTITLE1=真夏のサン・ホセ［シングル・ミックス］
TTITLE2=雲のように
EXTD=YEAR: 1997
EXTT0=
EXTT1=
EXTT2=
PLAYORDER=
